<mxfile host="65bd71144e">
    <diagram id="sh8j-TiL71u4g8iga6j7" name="Page-1">
        <mxGraphModel dx="1902" dy="1401" grid="1" gridSize="10" guides="1" tooltips="1" connect="1" arrows="1" fold="1" page="0" pageScale="1" pageWidth="827" pageHeight="1169" math="0" shadow="0">
            <root>
                <mxCell id="0"/>
                <mxCell id="1" parent="0"/>
                <mxCell id="7" value="&lt;font color=&quot;#ff0000&quot;&gt;Maybe just one enum for all COM::brokers??&lt;/font&gt;" style="text;html=1;strokeColor=#FF0000;fillColor=#FFFFFF;align=left;verticalAlign=bottom;whiteSpace=wrap;rounded=0;fontSize=18;strokeWidth=3;" parent="1" vertex="1">
                    <mxGeometry x="290" y="750" width="180" height="370" as="geometry"/>
                </mxCell>
                <mxCell id="-vT7-uqYesEhNPbZqqy5-24" value="Robot 1 (Chaser, Police)" style="rounded=0;whiteSpace=wrap;html=1;align=left;verticalAlign=top;fillColor=#CCCCCC;" parent="1" vertex="1">
                    <mxGeometry x="-160" y="80" width="480" height="640" as="geometry"/>
                </mxCell>
                <mxCell id="-vT7-uqYesEhNPbZqqy5-9" value="Arduino" style="rounded=0;whiteSpace=wrap;html=1;align=left;verticalAlign=top;fillColor=#E6E6E6;" parent="1" vertex="1">
                    <mxGeometry x="-150" y="110" width="460" height="150" as="geometry"/>
                </mxCell>
                <mxCell id="-vT7-uqYesEhNPbZqqy5-10" value="ESP" style="rounded=0;whiteSpace=wrap;html=1;align=left;verticalAlign=top;fillColor=#E6E6E6;" parent="1" vertex="1">
                    <mxGeometry x="-150" y="310" width="460" height="370" as="geometry"/>
                </mxCell>
                <mxCell id="-vT7-uqYesEhNPbZqqy5-11" value="Actors::MESSAGE_BROKER" style="rounded=0;whiteSpace=wrap;html=1;fillColor=#FFCC99;" parent="1" vertex="1">
                    <mxGeometry x="-130" y="140" width="200" height="30" as="geometry"/>
                </mxCell>
                <mxCell id="-vT7-uqYesEhNPbZqqy5-14" value="UART" style="html=1;shadow=0;dashed=0;align=center;verticalAlign=middle;shape=mxgraph.arrows2.twoWayArrow;dy=0.6;dx=35;rotation=90;fillColor=#FFCC99;" parent="1" vertex="1">
                    <mxGeometry x="24.38" y="235.63" width="111.25" height="100" as="geometry"/>
                </mxCell>
                <mxCell id="-vT7-uqYesEhNPbZqqy5-16" value="&lt;span style=&quot;color: rgb(0, 0, 0); font-family: Helvetica; font-size: 12px; font-style: normal; font-variant-ligatures: normal; font-variant-caps: normal; font-weight: 400; letter-spacing: normal; orphans: 2; text-align: center; text-indent: 0px; text-transform: none; widows: 2; word-spacing: 0px; -webkit-text-stroke-width: 0px; text-decoration-thickness: initial; text-decoration-style: initial; text-decoration-color: initial; float: none; display: inline !important;&quot;&gt;Sensors::MESSAGE_BROKER&lt;/span&gt;" style="rounded=0;whiteSpace=wrap;html=1;fillColor=#FFCC99;" parent="1" vertex="1">
                    <mxGeometry x="90" y="140" width="200" height="30" as="geometry"/>
                </mxCell>
                <mxCell id="0Q2K15YDXJHgUXR2JB0Y-63" value="sndBroker" style="rounded=0;orthogonalLoop=1;jettySize=auto;html=1;exitX=1;exitY=0.5;exitDx=0;exitDy=0;entryX=0.25;entryY=0;entryDx=0;entryDy=0;" parent="1" source="-vT7-uqYesEhNPbZqqy5-17" target="0Q2K15YDXJHgUXR2JB0Y-20" edge="1">
                    <mxGeometry relative="1" as="geometry"/>
                </mxCell>
                <mxCell id="-vT7-uqYesEhNPbZqqy5-17" value="COM::broker" style="rounded=0;whiteSpace=wrap;html=1;fillColor=#CCFF99;" parent="1" vertex="1">
                    <mxGeometry x="-130" y="500" width="170" height="30" as="geometry"/>
                </mxCell>
                <mxCell id="0Q2K15YDXJHgUXR2JB0Y-17" style="rounded=0;orthogonalLoop=1;jettySize=auto;html=1;exitX=0.5;exitY=0;exitDx=0;exitDy=0;entryX=0.25;entryY=1;entryDx=0;entryDy=0;" parent="1" source="-vT7-uqYesEhNPbZqqy5-18" target="0Q2K15YDXJHgUXR2JB0Y-16" edge="1">
                    <mxGeometry relative="1" as="geometry"/>
                </mxCell>
                <mxCell id="0Q2K15YDXJHgUXR2JB0Y-68" value="sndBroker" style="edgeLabel;html=1;align=center;verticalAlign=middle;resizable=0;points=[];" parent="0Q2K15YDXJHgUXR2JB0Y-17" vertex="1" connectable="0">
                    <mxGeometry x="-0.3253" y="1" relative="1" as="geometry">
                        <mxPoint x="-1" as="offset"/>
                    </mxGeometry>
                </mxCell>
                <mxCell id="-vT7-uqYesEhNPbZqqy5-18" value="Actors::MESSAGE_BROKER" style="rounded=0;whiteSpace=wrap;html=1;fillColor=#FFCC99;" parent="1" vertex="1">
                    <mxGeometry x="-130" y="400" width="200" height="30" as="geometry"/>
                </mxCell>
                <mxCell id="0Q2K15YDXJHgUXR2JB0Y-12" value="&lt;span style=&quot;color: rgb(0, 0, 0); font-family: Helvetica; font-size: 12px; font-style: normal; font-variant-ligatures: normal; font-variant-caps: normal; font-weight: 400; letter-spacing: normal; orphans: 2; text-align: center; text-indent: 0px; text-transform: none; widows: 2; word-spacing: 0px; -webkit-text-stroke-width: 0px; background-color: rgb(255, 204, 153); text-decoration-thickness: initial; text-decoration-style: initial; text-decoration-color: initial; float: none; display: inline !important;&quot;&gt;Arduino_IO_Transferhandler&lt;/span&gt;" style="rounded=0;whiteSpace=wrap;html=1;fillColor=#FFCC99;" parent="1" vertex="1">
                    <mxGeometry x="-20" y="200" width="200" height="30" as="geometry"/>
                </mxCell>
                <mxCell id="0Q2K15YDXJHgUXR2JB0Y-14" value="rcvBroker" style="endArrow=classic;html=1;rounded=0;exitX=0.5;exitY=1;exitDx=0;exitDy=0;entryX=0.25;entryY=0;entryDx=0;entryDy=0;" parent="1" source="-vT7-uqYesEhNPbZqqy5-11" target="0Q2K15YDXJHgUXR2JB0Y-12" edge="1">
                    <mxGeometry width="50" height="50" relative="1" as="geometry">
                        <mxPoint x="360" y="230" as="sourcePoint"/>
                        <mxPoint x="410" y="180" as="targetPoint"/>
                    </mxGeometry>
                </mxCell>
                <mxCell id="0Q2K15YDXJHgUXR2JB0Y-15" value="sndBroker" style="endArrow=classic;html=1;rounded=0;exitX=0.5;exitY=1;exitDx=0;exitDy=0;entryX=0.75;entryY=0;entryDx=0;entryDy=0;" parent="1" source="-vT7-uqYesEhNPbZqqy5-16" target="0Q2K15YDXJHgUXR2JB0Y-12" edge="1">
                    <mxGeometry width="50" height="50" relative="1" as="geometry">
                        <mxPoint x="350" y="150" as="sourcePoint"/>
                        <mxPoint x="400" y="100" as="targetPoint"/>
                    </mxGeometry>
                </mxCell>
                <mxCell id="0Q2K15YDXJHgUXR2JB0Y-16" value="Actors::MESSAGE_BROKER" style="rounded=0;whiteSpace=wrap;html=1;fillColor=#FFCC99;" parent="1" vertex="1">
                    <mxGeometry x="-20" y="340" width="200" height="30" as="geometry"/>
                </mxCell>
                <mxCell id="0Q2K15YDXJHgUXR2JB0Y-19" style="edgeStyle=none;rounded=0;orthogonalLoop=1;jettySize=auto;html=1;exitX=0.5;exitY=0;exitDx=0;exitDy=0;entryX=0.75;entryY=1;entryDx=0;entryDy=0;" parent="1" source="0Q2K15YDXJHgUXR2JB0Y-18" target="0Q2K15YDXJHgUXR2JB0Y-16" edge="1">
                    <mxGeometry relative="1" as="geometry"/>
                </mxCell>
                <mxCell id="0Q2K15YDXJHgUXR2JB0Y-67" value="rcvBroker" style="edgeLabel;html=1;align=center;verticalAlign=middle;resizable=0;points=[];" parent="0Q2K15YDXJHgUXR2JB0Y-19" vertex="1" connectable="0">
                    <mxGeometry x="-0.3173" y="-2" relative="1" as="geometry">
                        <mxPoint as="offset"/>
                    </mxGeometry>
                </mxCell>
                <mxCell id="0Q2K15YDXJHgUXR2JB0Y-18" value="&lt;span style=&quot;color: rgb(0, 0, 0); font-family: Helvetica; font-size: 12px; font-style: normal; font-variant-ligatures: normal; font-variant-caps: normal; font-weight: 400; letter-spacing: normal; orphans: 2; text-align: center; text-indent: 0px; text-transform: none; widows: 2; word-spacing: 0px; -webkit-text-stroke-width: 0px; text-decoration-thickness: initial; text-decoration-style: initial; text-decoration-color: initial; float: none; display: inline !important;&quot;&gt;Sensors::MESSAGE_BROKER&lt;/span&gt;" style="rounded=0;whiteSpace=wrap;html=1;fillColor=#FFCC99;" parent="1" vertex="1">
                    <mxGeometry x="90" y="400" width="200" height="30" as="geometry"/>
                </mxCell>
                <mxCell id="0Q2K15YDXJHgUXR2JB0Y-20" value="&lt;span style=&quot;&quot;&gt;WIFI_TRANSFER_HANDLER&lt;/span&gt;" style="rounded=0;whiteSpace=wrap;html=1;fillColor=#CCFF99;" parent="1" vertex="1">
                    <mxGeometry x="120" y="545" width="170" height="30" as="geometry"/>
                </mxCell>
                <mxCell id="0Q2K15YDXJHgUXR2JB0Y-64" value="rcvBroker" style="edgeStyle=none;rounded=0;orthogonalLoop=1;jettySize=auto;html=1;exitX=1;exitY=0.5;exitDx=0;exitDy=0;entryX=0.25;entryY=1;entryDx=0;entryDy=0;" parent="1" source="0Q2K15YDXJHgUXR2JB0Y-21" target="0Q2K15YDXJHgUXR2JB0Y-20" edge="1">
                    <mxGeometry relative="1" as="geometry"/>
                </mxCell>
                <mxCell id="0Q2K15YDXJHgUXR2JB0Y-21" value="COM::broker???" style="rounded=0;whiteSpace=wrap;html=1;fillColor=#CCFF99;" parent="1" vertex="1">
                    <mxGeometry x="-130" y="590" width="170" height="30" as="geometry"/>
                </mxCell>
                <mxCell id="0Q2K15YDXJHgUXR2JB0Y-22" style="edgeStyle=none;rounded=0;orthogonalLoop=1;jettySize=auto;html=1;exitX=0.75;exitY=1;exitDx=0;exitDy=0;" parent="1" source="-vT7-uqYesEhNPbZqqy5-17" target="-vT7-uqYesEhNPbZqqy5-17" edge="1">
                    <mxGeometry relative="1" as="geometry"/>
                </mxCell>
                <mxCell id="0Q2K15YDXJHgUXR2JB0Y-23" value="Robot 2 (Chased-one, Criminal)" style="rounded=0;whiteSpace=wrap;html=1;align=left;verticalAlign=top;fillColor=#CCCCCC;" parent="1" vertex="1">
                    <mxGeometry x="440" y="80" width="480" height="640" as="geometry"/>
                </mxCell>
                <mxCell id="0Q2K15YDXJHgUXR2JB0Y-24" value="Arduino" style="rounded=0;whiteSpace=wrap;html=1;align=left;verticalAlign=top;fillColor=#E6E6E6;" parent="1" vertex="1">
                    <mxGeometry x="450" y="110" width="460" height="150" as="geometry"/>
                </mxCell>
                <mxCell id="0Q2K15YDXJHgUXR2JB0Y-25" value="ESP" style="rounded=0;whiteSpace=wrap;html=1;align=left;verticalAlign=top;fillColor=#E6E6E6;" parent="1" vertex="1">
                    <mxGeometry x="450" y="310" width="460" height="370" as="geometry"/>
                </mxCell>
                <mxCell id="0Q2K15YDXJHgUXR2JB0Y-26" value="Actors::MESSAGE_BROKER" style="rounded=0;whiteSpace=wrap;html=1;fillColor=#FFCC99;" parent="1" vertex="1">
                    <mxGeometry x="470" y="140" width="200" height="30" as="geometry"/>
                </mxCell>
                <mxCell id="0Q2K15YDXJHgUXR2JB0Y-27" value="UART" style="html=1;shadow=0;dashed=0;align=center;verticalAlign=middle;shape=mxgraph.arrows2.twoWayArrow;dy=0.6;dx=35;rotation=90;fillColor=#FFCC99;" parent="1" vertex="1">
                    <mxGeometry x="624.38" y="235.63" width="111.25" height="100" as="geometry"/>
                </mxCell>
                <mxCell id="0Q2K15YDXJHgUXR2JB0Y-28" value="&lt;span style=&quot;color: rgb(0, 0, 0); font-family: Helvetica; font-size: 12px; font-style: normal; font-variant-ligatures: normal; font-variant-caps: normal; font-weight: 400; letter-spacing: normal; orphans: 2; text-align: center; text-indent: 0px; text-transform: none; widows: 2; word-spacing: 0px; -webkit-text-stroke-width: 0px; text-decoration-thickness: initial; text-decoration-style: initial; text-decoration-color: initial; float: none; display: inline !important;&quot;&gt;Sensors::MESSAGE_BROKER&lt;/span&gt;" style="rounded=0;whiteSpace=wrap;html=1;fillColor=#FFCC99;" parent="1" vertex="1">
                    <mxGeometry x="690" y="140" width="200" height="30" as="geometry"/>
                </mxCell>
                <mxCell id="0Q2K15YDXJHgUXR2JB0Y-65" value="rcvBroker" style="edgeStyle=none;rounded=0;orthogonalLoop=1;jettySize=auto;html=1;exitX=0;exitY=0.5;exitDx=0;exitDy=0;entryX=0.75;entryY=0;entryDx=0;entryDy=0;" parent="1" source="0Q2K15YDXJHgUXR2JB0Y-29" target="0Q2K15YDXJHgUXR2JB0Y-38" edge="1">
                    <mxGeometry relative="1" as="geometry"/>
                </mxCell>
                <mxCell id="0Q2K15YDXJHgUXR2JB0Y-29" value="COM::broker" style="rounded=0;whiteSpace=wrap;html=1;fillColor=#CCFF99;" parent="1" vertex="1">
                    <mxGeometry x="720" y="500" width="170.01" height="30" as="geometry"/>
                </mxCell>
                <mxCell id="0Q2K15YDXJHgUXR2JB0Y-30" value="sndBroker" style="rounded=0;orthogonalLoop=1;jettySize=auto;html=1;exitX=0.5;exitY=0;exitDx=0;exitDy=0;entryX=0.25;entryY=1;entryDx=0;entryDy=0;" parent="1" source="0Q2K15YDXJHgUXR2JB0Y-31" target="0Q2K15YDXJHgUXR2JB0Y-35" edge="1">
                    <mxGeometry relative="1" as="geometry"/>
                </mxCell>
                <mxCell id="0Q2K15YDXJHgUXR2JB0Y-31" value="Actors::MESSAGE_BROKER" style="rounded=0;whiteSpace=wrap;html=1;fillColor=#FFCC99;" parent="1" vertex="1">
                    <mxGeometry x="470" y="400" width="200" height="30" as="geometry"/>
                </mxCell>
                <mxCell id="0Q2K15YDXJHgUXR2JB0Y-32" value="&lt;span style=&quot;color: rgb(0, 0, 0); font-family: Helvetica; font-size: 12px; font-style: normal; font-variant-ligatures: normal; font-variant-caps: normal; font-weight: 400; letter-spacing: normal; orphans: 2; text-align: center; text-indent: 0px; text-transform: none; widows: 2; word-spacing: 0px; -webkit-text-stroke-width: 0px; background-color: rgb(255, 204, 153); text-decoration-thickness: initial; text-decoration-style: initial; text-decoration-color: initial; float: none; display: inline !important;&quot;&gt;Arduino_IO_Transferhandler&lt;/span&gt;" style="rounded=0;whiteSpace=wrap;html=1;fillColor=#FFCC99;" parent="1" vertex="1">
                    <mxGeometry x="580" y="200" width="200" height="30" as="geometry"/>
                </mxCell>
                <mxCell id="0Q2K15YDXJHgUXR2JB0Y-33" value="rcvBroker" style="endArrow=classic;html=1;rounded=0;exitX=0.5;exitY=1;exitDx=0;exitDy=0;entryX=0.25;entryY=0;entryDx=0;entryDy=0;" parent="1" source="0Q2K15YDXJHgUXR2JB0Y-26" target="0Q2K15YDXJHgUXR2JB0Y-32" edge="1">
                    <mxGeometry width="50" height="50" relative="1" as="geometry">
                        <mxPoint x="960" y="230" as="sourcePoint"/>
                        <mxPoint x="1010" y="180" as="targetPoint"/>
                    </mxGeometry>
                </mxCell>
                <mxCell id="0Q2K15YDXJHgUXR2JB0Y-34" value="sndBroker" style="endArrow=classic;html=1;rounded=0;exitX=0.5;exitY=1;exitDx=0;exitDy=0;entryX=0.75;entryY=0;entryDx=0;entryDy=0;" parent="1" source="0Q2K15YDXJHgUXR2JB0Y-28" target="0Q2K15YDXJHgUXR2JB0Y-32" edge="1">
                    <mxGeometry width="50" height="50" relative="1" as="geometry">
                        <mxPoint x="950" y="150" as="sourcePoint"/>
                        <mxPoint x="1000" y="100" as="targetPoint"/>
                    </mxGeometry>
                </mxCell>
                <mxCell id="0Q2K15YDXJHgUXR2JB0Y-35" value="Actors::MESSAGE_BROKER" style="rounded=0;whiteSpace=wrap;html=1;fillColor=#FFCC99;" parent="1" vertex="1">
                    <mxGeometry x="580" y="340" width="200" height="30" as="geometry"/>
                </mxCell>
                <mxCell id="0Q2K15YDXJHgUXR2JB0Y-36" value="rcvBroker" style="edgeStyle=none;rounded=0;orthogonalLoop=1;jettySize=auto;html=1;exitX=0.5;exitY=0;exitDx=0;exitDy=0;entryX=0.75;entryY=1;entryDx=0;entryDy=0;" parent="1" source="0Q2K15YDXJHgUXR2JB0Y-37" target="0Q2K15YDXJHgUXR2JB0Y-35" edge="1">
                    <mxGeometry relative="1" as="geometry"/>
                </mxCell>
                <mxCell id="0Q2K15YDXJHgUXR2JB0Y-37" value="&lt;span style=&quot;color: rgb(0, 0, 0); font-family: Helvetica; font-size: 12px; font-style: normal; font-variant-ligatures: normal; font-variant-caps: normal; font-weight: 400; letter-spacing: normal; orphans: 2; text-align: center; text-indent: 0px; text-transform: none; widows: 2; word-spacing: 0px; -webkit-text-stroke-width: 0px; text-decoration-thickness: initial; text-decoration-style: initial; text-decoration-color: initial; float: none; display: inline !important;&quot;&gt;Sensors::MESSAGE_BROKER&lt;/span&gt;" style="rounded=0;whiteSpace=wrap;html=1;fillColor=#FFCC99;" parent="1" vertex="1">
                    <mxGeometry x="690" y="400" width="200" height="30" as="geometry"/>
                </mxCell>
                <mxCell id="0Q2K15YDXJHgUXR2JB0Y-38" value="&lt;span style=&quot;&quot;&gt;WIFI_TRANSFER_HANDLER&lt;/span&gt;" style="rounded=0;whiteSpace=wrap;html=1;fillColor=#CCFF99;" parent="1" vertex="1">
                    <mxGeometry x="470" y="545" width="170" height="30" as="geometry"/>
                </mxCell>
                <mxCell id="0Q2K15YDXJHgUXR2JB0Y-66" value="sndBroker" style="edgeStyle=none;rounded=0;orthogonalLoop=1;jettySize=auto;html=1;exitX=0;exitY=0.5;exitDx=0;exitDy=0;entryX=0.75;entryY=1;entryDx=0;entryDy=0;" parent="1" source="0Q2K15YDXJHgUXR2JB0Y-39" target="0Q2K15YDXJHgUXR2JB0Y-38" edge="1">
                    <mxGeometry relative="1" as="geometry"/>
                </mxCell>
                <mxCell id="0Q2K15YDXJHgUXR2JB0Y-39" value="COM::broker???" style="rounded=0;whiteSpace=wrap;html=1;fillColor=#CCFF99;" parent="1" vertex="1">
                    <mxGeometry x="720" y="590" width="170" height="30" as="geometry"/>
                </mxCell>
                <mxCell id="0Q2K15YDXJHgUXR2JB0Y-40" style="edgeStyle=none;rounded=0;orthogonalLoop=1;jettySize=auto;html=1;exitX=0.75;exitY=1;exitDx=0;exitDy=0;" parent="1" source="0Q2K15YDXJHgUXR2JB0Y-29" target="0Q2K15YDXJHgUXR2JB0Y-29" edge="1">
                    <mxGeometry relative="1" as="geometry"/>
                </mxCell>
                <mxCell id="-vT7-uqYesEhNPbZqqy5-13" value="WiFi" style="html=1;shadow=0;dashed=0;align=center;verticalAlign=middle;shape=mxgraph.arrows2.twoWayArrow;dy=0.6;dx=35;fillColor=#CCFF99;" parent="1" vertex="1">
                    <mxGeometry x="290" y="510" width="180" height="100" as="geometry"/>
                </mxCell>
                <mxCell id="0Q2K15YDXJHgUXR2JB0Y-43" style="edgeStyle=none;rounded=0;orthogonalLoop=1;jettySize=auto;html=1;exitX=0.5;exitY=1;exitDx=0;exitDy=0;entryX=0.5;entryY=0;entryDx=0;entryDy=0;" parent="1" source="0Q2K15YDXJHgUXR2JB0Y-41" target="-vT7-uqYesEhNPbZqqy5-16" edge="1">
                    <mxGeometry relative="1" as="geometry"/>
                </mxCell>
                <mxCell id="0Q2K15YDXJHgUXR2JB0Y-45" style="edgeStyle=elbowEdgeStyle;rounded=0;orthogonalLoop=1;jettySize=auto;html=1;exitX=1;exitY=0.5;exitDx=0;exitDy=0;entryX=1;entryY=0.5;entryDx=0;entryDy=0;" parent="1" source="0Q2K15YDXJHgUXR2JB0Y-41" target="0Q2K15YDXJHgUXR2JB0Y-18" edge="1">
                    <mxGeometry relative="1" as="geometry">
                        <Array as="points">
                            <mxPoint x="340" y="220"/>
                        </Array>
                    </mxGeometry>
                </mxCell>
                <mxCell id="0Q2K15YDXJHgUXR2JB0Y-41" value="enum Actor &lt;br&gt;{&lt;br&gt;motor_l_direction,&lt;br&gt;motor_l_speed,&lt;br&gt;motor_r_direction,&lt;br&gt;motor_l_speed,&lt;br&gt;};" style="rounded=0;whiteSpace=wrap;html=1;labelBackgroundColor=none;fillColor=#FFFFFF;align=left;" parent="1" vertex="1">
                    <mxGeometry x="130" y="-80" width="120" height="120" as="geometry"/>
                </mxCell>
                <mxCell id="0Q2K15YDXJHgUXR2JB0Y-44" style="edgeStyle=none;rounded=0;orthogonalLoop=1;jettySize=auto;html=1;exitX=0.5;exitY=1;exitDx=0;exitDy=0;entryX=0.5;entryY=0;entryDx=0;entryDy=0;" parent="1" source="0Q2K15YDXJHgUXR2JB0Y-42" target="-vT7-uqYesEhNPbZqqy5-11" edge="1">
                    <mxGeometry relative="1" as="geometry"/>
                </mxCell>
                <mxCell id="0Q2K15YDXJHgUXR2JB0Y-42" value="enum Sensor&lt;br&gt;{&lt;br&gt;QR_CODE,&lt;br&gt;LINE,&lt;br&gt;};" style="rounded=0;whiteSpace=wrap;html=1;labelBackgroundColor=none;fillColor=#FFFFFF;align=left;" parent="1" vertex="1">
                    <mxGeometry x="-90" y="-80" width="120" height="120" as="geometry"/>
                </mxCell>
                <mxCell id="0Q2K15YDXJHgUXR2JB0Y-47" style="edgeStyle=elbowEdgeStyle;rounded=0;orthogonalLoop=1;jettySize=auto;html=1;exitX=0;exitY=0.5;exitDx=0;exitDy=0;entryX=0;entryY=0.5;entryDx=0;entryDy=0;" parent="1" source="0Q2K15YDXJHgUXR2JB0Y-42" target="-vT7-uqYesEhNPbZqqy5-18" edge="1">
                    <mxGeometry relative="1" as="geometry">
                        <mxPoint x="250" y="-20" as="sourcePoint"/>
                        <mxPoint x="290" y="415" as="targetPoint"/>
                        <Array as="points">
                            <mxPoint x="-180" y="210"/>
                            <mxPoint x="340" y="220"/>
                        </Array>
                    </mxGeometry>
                </mxCell>
                <mxCell id="0Q2K15YDXJHgUXR2JB0Y-48" value="enum Sensor&lt;br&gt;{&lt;br&gt;QR_CODE,&lt;br&gt;LINE,&lt;br&gt;};" style="rounded=0;whiteSpace=wrap;html=1;labelBackgroundColor=none;fillColor=#FFFFFF;align=left;" parent="1" vertex="1">
                    <mxGeometry x="510.01" y="-80" width="120" height="120" as="geometry"/>
                </mxCell>
                <mxCell id="0Q2K15YDXJHgUXR2JB0Y-49" style="edgeStyle=elbowEdgeStyle;rounded=0;orthogonalLoop=1;jettySize=auto;html=1;exitX=0;exitY=0.5;exitDx=0;exitDy=0;entryX=0;entryY=0.5;entryDx=0;entryDy=0;" parent="1" source="0Q2K15YDXJHgUXR2JB0Y-48" target="0Q2K15YDXJHgUXR2JB0Y-31" edge="1">
                    <mxGeometry relative="1" as="geometry">
                        <mxPoint x="850.01" y="-20" as="sourcePoint"/>
                        <mxPoint x="470.01" y="415" as="targetPoint"/>
                        <Array as="points">
                            <mxPoint x="420.01" y="210"/>
                            <mxPoint x="940.01" y="220"/>
                        </Array>
                    </mxGeometry>
                </mxCell>
                <mxCell id="0Q2K15YDXJHgUXR2JB0Y-50" style="edgeStyle=none;rounded=0;orthogonalLoop=1;jettySize=auto;html=1;exitX=0.5;exitY=1;exitDx=0;exitDy=0;entryX=0.5;entryY=0;entryDx=0;entryDy=0;" parent="1" source="0Q2K15YDXJHgUXR2JB0Y-48" target="0Q2K15YDXJHgUXR2JB0Y-26" edge="1">
                    <mxGeometry relative="1" as="geometry">
                        <mxPoint x="570.01" y="140" as="targetPoint"/>
                    </mxGeometry>
                </mxCell>
                <mxCell id="0Q2K15YDXJHgUXR2JB0Y-51" style="edgeStyle=none;rounded=0;orthogonalLoop=1;jettySize=auto;html=1;exitX=0.5;exitY=1;exitDx=0;exitDy=0;entryX=0.5;entryY=0;entryDx=0;entryDy=0;" parent="1" source="0Q2K15YDXJHgUXR2JB0Y-52" target="0Q2K15YDXJHgUXR2JB0Y-28" edge="1">
                    <mxGeometry relative="1" as="geometry">
                        <mxPoint x="790.01" y="140" as="targetPoint"/>
                    </mxGeometry>
                </mxCell>
                <mxCell id="0Q2K15YDXJHgUXR2JB0Y-52" value="enum Actor &lt;br&gt;{&lt;br&gt;motor_l_direction,&lt;br&gt;motor_l_speed,&lt;br&gt;motor_r_direction,&lt;br&gt;motor_l_speed,&lt;br&gt;};" style="rounded=0;whiteSpace=wrap;html=1;labelBackgroundColor=none;fillColor=#FFFFFF;align=left;" parent="1" vertex="1">
                    <mxGeometry x="730.01" y="-80" width="120" height="120" as="geometry"/>
                </mxCell>
                <mxCell id="0Q2K15YDXJHgUXR2JB0Y-53" style="edgeStyle=elbowEdgeStyle;rounded=0;orthogonalLoop=1;jettySize=auto;html=1;exitX=1;exitY=0.5;exitDx=0;exitDy=0;entryX=1;entryY=0.5;entryDx=0;entryDy=0;" parent="1" source="0Q2K15YDXJHgUXR2JB0Y-52" target="0Q2K15YDXJHgUXR2JB0Y-37" edge="1">
                    <mxGeometry relative="1" as="geometry">
                        <mxPoint x="890.01" y="415" as="targetPoint"/>
                        <Array as="points">
                            <mxPoint x="940.01" y="220"/>
                        </Array>
                    </mxGeometry>
                </mxCell>
                <mxCell id="0Q2K15YDXJHgUXR2JB0Y-58" style="edgeStyle=elbowEdgeStyle;rounded=0;orthogonalLoop=1;jettySize=auto;html=1;exitX=0;exitY=0.5;exitDx=0;exitDy=0;entryX=0;entryY=0.5;entryDx=0;entryDy=0;" parent="1" source="0Q2K15YDXJHgUXR2JB0Y-55" target="-vT7-uqYesEhNPbZqqy5-17" edge="1">
                    <mxGeometry relative="1" as="geometry">
                        <Array as="points">
                            <mxPoint x="-180" y="750"/>
                        </Array>
                    </mxGeometry>
                </mxCell>
                <mxCell id="0Q2K15YDXJHgUXR2JB0Y-59" style="edgeStyle=elbowEdgeStyle;rounded=0;orthogonalLoop=1;jettySize=auto;html=1;exitX=1;exitY=0.5;exitDx=0;exitDy=0;entryX=1;entryY=0.5;entryDx=0;entryDy=0;" parent="1" source="0Q2K15YDXJHgUXR2JB0Y-55" target="0Q2K15YDXJHgUXR2JB0Y-29" edge="1">
                    <mxGeometry relative="1" as="geometry">
                        <Array as="points">
                            <mxPoint x="940" y="750"/>
                        </Array>
                    </mxGeometry>
                </mxCell>
                <mxCell id="0Q2K15YDXJHgUXR2JB0Y-55" value="enum xyz&lt;br&gt;{&lt;br&gt;&lt;br&gt;&lt;br&gt;};" style="rounded=0;whiteSpace=wrap;html=1;labelBackgroundColor=none;fillColor=#FFFFFF;align=left;" parent="1" vertex="1">
                    <mxGeometry x="320" y="920" width="120" height="120" as="geometry"/>
                </mxCell>
                <mxCell id="0Q2K15YDXJHgUXR2JB0Y-60" style="edgeStyle=elbowEdgeStyle;rounded=0;orthogonalLoop=1;jettySize=auto;html=1;exitX=1;exitY=0.5;exitDx=0;exitDy=0;entryX=0.5;entryY=1;entryDx=0;entryDy=0;" parent="1" source="0Q2K15YDXJHgUXR2JB0Y-56" target="0Q2K15YDXJHgUXR2JB0Y-39" edge="1">
                    <mxGeometry relative="1" as="geometry">
                        <Array as="points">
                            <mxPoint x="805" y="720"/>
                        </Array>
                    </mxGeometry>
                </mxCell>
                <mxCell id="0Q2K15YDXJHgUXR2JB0Y-61" style="edgeStyle=elbowEdgeStyle;rounded=0;orthogonalLoop=1;jettySize=auto;html=1;exitX=0;exitY=0.5;exitDx=0;exitDy=0;entryX=0.5;entryY=1;entryDx=0;entryDy=0;" parent="1" source="0Q2K15YDXJHgUXR2JB0Y-56" target="0Q2K15YDXJHgUXR2JB0Y-21" edge="1">
                    <mxGeometry relative="1" as="geometry">
                        <Array as="points">
                            <mxPoint x="-45" y="730"/>
                        </Array>
                    </mxGeometry>
                </mxCell>
                <mxCell id="0Q2K15YDXJHgUXR2JB0Y-56" value="enum xyz&lt;br&gt;{&lt;br&gt;&lt;br&gt;&lt;br&gt;};" style="rounded=0;whiteSpace=wrap;html=1;labelBackgroundColor=none;fillColor=#FFFFFF;align=left;" parent="1" vertex="1">
                    <mxGeometry x="320" y="760" width="120" height="120" as="geometry"/>
                </mxCell>
                <mxCell id="4" style="edgeStyle=none;html=1;exitX=0.5;exitY=1;exitDx=0;exitDy=0;entryX=0.25;entryY=0;entryDx=0;entryDy=0;strokeColor=#FF0000;strokeWidth=3;" parent="1" source="2" target="6" edge="1">
                    <mxGeometry relative="1" as="geometry">
                        <mxPoint x="370" y="1130" as="targetPoint"/>
                    </mxGeometry>
                </mxCell>
                <mxCell id="2" value="" style="rounded=0;whiteSpace=wrap;html=1;fillColor=none;strokeColor=#FF0000;strokeWidth=3;" parent="1" vertex="1">
                    <mxGeometry x="70" y="510" width="60" height="100" as="geometry"/>
                </mxCell>
                <mxCell id="5" style="edgeStyle=none;html=1;exitX=0.5;exitY=1;exitDx=0;exitDy=0;entryX=0.75;entryY=0;entryDx=0;entryDy=0;strokeColor=#FF0000;strokeWidth=3;" parent="1" source="3" target="6" edge="1">
                    <mxGeometry relative="1" as="geometry">
                        <mxPoint x="390" y="1130" as="targetPoint"/>
                    </mxGeometry>
                </mxCell>
                <mxCell id="3" value="" style="rounded=0;whiteSpace=wrap;html=1;fillColor=none;strokeColor=#FF0000;strokeWidth=3;" parent="1" vertex="1">
                    <mxGeometry x="630" y="510" width="60" height="100" as="geometry"/>
                </mxCell>
                <mxCell id="6" value="&lt;font color=&quot;#ff0000&quot;&gt;Conflict here:&lt;br&gt;Check needed if robot is Police or criminal&lt;/font&gt;" style="text;html=1;strokeColor=#FF0000;fillColor=#FFFFFF;align=left;verticalAlign=middle;whiteSpace=wrap;rounded=0;fontSize=18;strokeWidth=3;" parent="1" vertex="1">
                    <mxGeometry x="290" y="660" width="180" height="80" as="geometry"/>
                </mxCell>
                <mxCell id="8" value="&lt;font style=&quot;font-size: 12px&quot;&gt;Data exchange:&lt;br&gt;&lt;br&gt;Won?&lt;br style=&quot;font-size: 12px&quot;&gt;Position (QR Code)&lt;br&gt;ready?&lt;br&gt;&lt;br style=&quot;font-size: 12px&quot;&gt;&lt;/font&gt;" style="text;html=1;strokeColor=none;fillColor=none;align=left;verticalAlign=top;whiteSpace=wrap;rounded=0;fontSize=12;fontColor=#000000;" parent="1" vertex="1">
                    <mxGeometry x="-370" y="520" width="150" height="265" as="geometry"/>
                </mxCell>
            </root>
        </mxGraphModel>
    </diagram>
</mxfile>